<svg xmlns="http://www.w3.org/2000/svg" xmlns:xlink="http://www.w3.org/1999/xlink" t="1732386260383" class="icon" viewBox="0 0 1024 1024" version="1.1" p-id="11889" width="30" height="30" style="&#10;    /* font-size: 12px; */&#10;"><path d="M506.097401 934.259908c0 50.722661-74.13312 89.740092-163.873212 89.740092s-163.873212-39.017431-163.873211-89.740092 74.13312-89.740092 163.873211-89.740092 163.873212 39.017431 163.873212 89.740092z m175.578441-93.641835c-89.740092 0-163.873212 39.017431-163.873212 89.740092s74.13312 89.740092 163.873212 89.740092 163.873212-39.017431 163.873212-89.740092-74.13312-85.838349-163.873212-89.740092z" fill="#EE7F00" p-id="11890"/><path d="M943.092632 692.351834c-3.901743-46.820918-15.606973-89.740092-35.115688-128.757524-11.705229-23.410459-23.410459-42.919174-35.115688-62.42789-7.803486-7.803486-23.410459-15.606973-27.312202-23.410459-3.901743-27.312202-3.901743-54.624404 0-81.936606 0-136.56101-35.115688-269.220276-159.971469-347.255139-159.971469-97.543578-366.763855-42.919174-464.307433 117.052294 0 3.901743-3.901743 7.803486-3.901743 11.70523-50.722661 97.543578-19.508716 183.381927-39.017431 280.925506-3.901743 27.312202-23.410459 39.017431-39.017432 66.329633-31.213945 42.919174-50.722661 93.641835-58.526147 148.266239 0 27.312202-7.803486 109.248808 27.312202 117.052294 27.312202 7.803486 58.526147-39.017431 66.329634-58.526147 42.919174 148.266239 179.480184 253.613304 331.648166 257.515047 156.069725-3.901743 288.728992-109.248808 335.549909-257.515047 11.705229 19.508716 39.017431 58.526147 66.329634 58.526147s39.017431-70.231376 35.115688-97.543578z" fill="#0B0E10" p-id="11891"/><path d="M268.09107 555.790824c-3.901743 19.508716-3.901743 39.017431-3.901743 58.526147 0 183.381927 113.150551 331.648166 253.613303 331.648166s253.613304-148.266239 253.613304-331.648166c0-19.508716 0-39.017431-3.901743-58.526147h-499.423121z m156.069725-401.879543c-35.115688 0-66.329633 39.017431-66.329633 89.740092 0 50.722661 31.213945 89.740092 66.329633 89.740092s66.329633-39.017431 66.329633-89.740092-27.312202-89.740092-66.329633-89.740092z m11.70523 124.85578c-11.705229 0-23.410459-15.606973-23.410459-39.017431s11.705229-39.017431 23.410459-39.017431 23.410459 15.606973 23.410458 39.017431-11.705229 39.017431-23.410458 39.017431z m167.774954-124.85578c-35.115688 0-66.329633 39.017431-66.329633 89.740092 0 50.722661 31.213945 89.740092 66.329633 89.740092s66.329633-39.017431 66.329634-89.740092-31.213945-89.740092-66.329634-89.740092z m11.70523 93.641835c0-11.705229-11.705229-19.508716-23.410459-19.508715-7.803486 0-15.606973 7.803486-19.508716 19.508715 0-19.508716 11.705229-39.017431 23.410459-39.017431s23.410459 15.606973 23.410459 39.017431h-3.901743z" fill="#FFFFFF" p-id="11892"/><path d="M248.582354 536.282108c-11.705229 66.329633-15.606973 136.56101-11.705229 202.890643 7.803486 31.213945 31.213945 27.312202 66.329633 27.312202s78.034863 11.705229 78.034863-35.115688c0-54.624404 3.901743-109.248808 11.705229-167.774955 7.803486-35.115688-144.364496-27.312202-144.364496-27.312202z" fill="#FF392E" p-id="11893"/><path d="M240.778868 606.513485l140.462753 46.820917c0-31.213945 3.901743-58.526147 11.705229-89.740092 11.705229-35.115688-144.364496-27.312202-144.364496-27.312202-3.901743 11.705229-3.901743 39.017431-7.803486 70.231377z" fill="#DD2C00" p-id="11894"/><path d="M513.900887 462.148989c113.150551 0 202.890643-39.017431 202.890643-66.329634s-89.740092-39.017431-202.890643-39.017431-202.890643 15.606973-202.890643 39.017431 89.740092 66.329633 202.890643 66.329634z" fill="#EEB400" p-id="11895"/><path d="M513.900887 485.559447c78.034863 0 156.069725-15.606973 230.202845-42.919174 35.115688-19.508716 74.13312-35.115688 113.150551-50.722661 11.705229 0 23.410459 15.606973 31.213945 46.820918s11.705229 50.722661-11.705229 66.329633c-109.248808 66.329633-230.202845 101.445321-358.960369 105.347065h-7.803486c-124.85578-3.901743-249.711561-39.017431-358.960368-105.347065-23.410459-15.606973-15.606973-35.115688-11.70523-66.329633s19.508716-46.820918 31.213945-46.820918c39.017431 11.705229 74.13312 31.213945 113.150551 46.820918 70.231376 31.213945 148.266239 46.820918 230.202845 46.820917z" fill="#FF392E" p-id="11896"/></svg>