<svg xmlns="http://www.w3.org/2000/svg" xmlns:xlink="http://www.w3.org/1999/xlink" t="1732386488902" class="icon" viewBox="0 0 1292 1024" version="1.1" p-id="13906" width="30" height="30"><path d="M425.666351 679.100082c-37.265241 17.052735-56.926041 53.164408-43.902433 80.58253s53.816424 35.777306 91.081666 18.724572 56.976196-52.997224 43.902432-80.415347a54.78609 54.78609 0 0 0-51.960685-27.585306 96.398106 96.398106 0 0 0-39.12098 8.693551m95.829682-20.563592a37.248522 37.248522 0 1 0 37.231804-36.446041 36.930873 36.930873 0 0 0-37.231804 36.446041M299.92751 739.11902c-19.6608-98.972735 62.693878-197.945469 183.801731-221.016816s235.260865 38.452245 254.854792 137.42498-62.660441 197.945469-183.801731 221.016816a267.226384 267.226384 0 0 1-50.940865 4.848327c-100.694727 0-187.078531-57.344-203.964082-142.273307M524.956735 441.866449c-203.596278 27.919673-353.610188 155.982367-335.002645 285.884082s198.747951 212.323265 402.411102 184.236408 353.660343-156.149551 335.069518-285.884082c-16.18338-112.681796-154.093192-189.753469-323.433534-189.753469a557.691298 557.691298 0 0 0-79.044441 5.517061m405.754775-262.812735a166.899461 166.899461 0 0 1 144.9984 38.619429c67.291429 59.350204 39.756278 157.654204 39.756278 157.654204a44.805224 44.805224 0 0 1-43.467755 35.94449h-3.644604a26.080653 26.080653 0 0 1-27.150629-34.941388s25.59582-57.511184-10.281796-99.307102-100.04271-31.932082-100.04271-31.932082a35.827461 35.827461 0 0 1-36.66338-30.093061 40.608914 40.608914 0 0 0-0.367804 5.182694v-10.198204a36.161829 36.161829 0 0 0 0.367804 5.01551 43.467755 43.467755 0 0 1 36.56307-35.94449M0.167184 658.53649c0-201.62351 386.996767-520.108408 535.088065-520.108408 62.075298 0 183.902041 45.473959 98.638367 189.251918-2.35729 4.012408 27.986547-8.693551 72.189911-21.232327 66.15458-18.891755 163.405322-37.78351 228.356179-0.835918 108.33502 61.690776 0 160.66351 0 171.697633s217.589551 10.866939 217.589551 181.227102c0 201.790694-255.941486 365.296327-574.693877 365.296326S0.183902 860.327184 0.183902 658.53649M912.371461 0.852637S1078.000327-15.514645 1201.381878 98.805551s84.728686 304.441469 84.728685 304.441469a62.476539 62.476539 0 0 1-55.504979 53.833143c2.056359 0.167184 4.146155 0.334367 6.286106 0.334368h-12.689241c2.156669 0 4.279902-0.167184 6.403135-0.334368a46.159412 46.159412 0 0 1-41.645453-53.833143A283.677257 283.677257 0 0 0 1145.34191 183.902041C1071.31298 79.646302 912.204278 97.635265 912.204278 97.635265a54.602188 54.602188 0 0 1-55.270923-47.597192 54.735935 54.735935 0 0 0-0.300931 5.751119v-11.435363a53.013943 53.013943 0 0 0 0.300931 5.684244A56.006531 56.006531 0 0 1 912.371461 0.852637" fill="#FF8282" p-id="13907"/></svg>